<svg width="75" height="75" viewBox="0 0 75 75" fill="none" xmlns="http://www.w3.org/2000/svg">
<rect width="75" height="75" fill="#E5E5E5"/>
<rect width="2320" height="1810" transform="translate(-945 -1249)" fill="#475A7D"/>
<g clip-path="url(#clip0_0_1)">
<rect x="-745" y="-1049" width="1920" height="1410" rx="30" fill="#29354A"/>
<g filter="url(#filter0_ii_0_1)">
<rect width="75" height="75" rx="20" fill="url(#paint0_linear_0_1)"/>
<rect width="75" height="75" rx="20" fill="url(#paint1_linear_0_1)" fill-opacity="0.2" style="mix-blend-mode:soft-light"/>
</g>
<g filter="url(#filter1_dii_0_1)">
<rect x="17" y="16" width="40" height="44" rx="5" fill="white"/>
</g>
<g filter="url(#filter2_diii_0_1)">
<path fill-rule="evenodd" clip-rule="evenodd" d="M35.795 45.0872C35.6195 44.7697 35.308 44.4645 34.8475 44.4645H25.7474V39.6128H33.8247C34.3067 39.6128 34.6275 39.3067 34.8071 38.9732C34.9836 38.6454 35.0573 38.2425 35.0573 37.882C35.0573 37.5149 34.9745 37.1216 34.791 36.8058C34.6044 36.4847 34.2835 36.2036 33.8247 36.2036H25.7474V31.5092H34.6377C35.0919 31.5092 35.405 31.2182 35.5841 30.8983C35.7621 30.5804 35.8441 30.1827 35.8441 29.8046C35.8441 29.4437 35.7702 29.0474 35.597 28.7262C35.4212 28.4004 35.1074 28.1 34.6377 28.1H24.6984C23.7676 28.1 23.0152 28.2575 22.5102 28.7582C22.0046 29.2596 21.8398 30.0129 21.8398 30.9585V45.0414C21.8398 45.9757 22.0053 46.7269 22.5091 47.2308C23.0129 47.7346 23.7642 47.9 24.6984 47.9H34.8475C35.3334 47.9 35.6482 47.5892 35.8204 47.2534C35.9887 46.9251 36.0539 46.5238 36.0539 46.1691C36.0539 45.8022 35.9712 45.406 35.795 45.0872ZM42.3016 46.6149V39.7417L42.3016 39.7394C42.2899 38.7195 42.7286 37.8418 43.3646 37.2147C44.0063 36.5819 44.8225 36.2298 45.5273 36.2298C46.454 36.2298 47.0316 36.5016 47.3979 36.9953C47.7841 37.5156 47.9925 38.3551 47.9925 39.6128V46.6149C47.9925 47.0986 48.3071 47.4307 48.6508 47.6212C48.9939 47.8113 49.4236 47.9 49.8282 47.9C50.2439 47.9 50.6848 47.8122 51.0366 47.624C51.3865 47.4368 51.7165 47.1057 51.7165 46.6149L51.7165 46.6136L51.6902 38.7998V38.7991C51.6901 36.9194 51.2373 35.4463 50.3225 34.4407C49.4019 33.4288 48.0697 32.9516 46.4452 32.9516C44.7077 32.9516 43.1789 33.8057 42.1443 34.9161V34.394C42.1443 33.9142 41.8341 33.5833 41.5114 33.393C41.1884 33.2025 40.79 33.109 40.4396 33.109C40.0352 33.109 39.6006 33.1975 39.2526 33.3859C38.9066 33.5731 38.5776 33.904 38.5776 34.394V46.6149C38.5776 47.105 38.9066 47.4359 39.2526 47.6231C39.6006 47.8114 40.0352 47.9 40.4396 47.9C40.8554 47.9 41.2914 47.8121 41.6382 47.6222C41.9861 47.4317 42.3016 47.0993 42.3016 46.6149ZM41.7509 36.0724C41.7509 36.0724 41.7509 36.0724 41.7509 36.0724C41.7582 36.0606 41.7655 36.0488 41.773 36.0371C41.7655 36.0488 41.7582 36.0606 41.7509 36.0724ZM33.8248 36.5969C33.8248 36.5969 33.8248 36.5969 33.8247 36.5969L33.8248 36.5969C33.8248 36.5969 33.8248 36.5969 33.8248 36.5969ZM34.6378 28.4934C34.6377 28.4934 34.6377 28.4934 34.6377 28.4934H24.6984C22.8889 28.4934 22.2332 29.1228 22.2332 30.9585V45.0414C22.2332 45.72 22.3254 46.2363 22.5361 46.6166C22.3254 46.2363 22.2332 45.72 22.2332 45.0414V30.9585C22.2332 29.1228 22.8889 28.4934 24.6984 28.4934H34.6377C34.6377 28.4934 34.6377 28.4934 34.6378 28.4934Z" fill="#0047FF"/>
<path fill-rule="evenodd" clip-rule="evenodd" d="M35.795 45.0872C35.6195 44.7697 35.308 44.4645 34.8475 44.4645H25.7474V39.6128H33.8247C34.3067 39.6128 34.6275 39.3067 34.8071 38.9732C34.9836 38.6454 35.0573 38.2425 35.0573 37.882C35.0573 37.5149 34.9745 37.1216 34.791 36.8058C34.6044 36.4847 34.2835 36.2036 33.8247 36.2036H25.7474V31.5092H34.6377C35.0919 31.5092 35.405 31.2182 35.5841 30.8983C35.7621 30.5804 35.8441 30.1827 35.8441 29.8046C35.8441 29.4437 35.7702 29.0474 35.597 28.7262C35.4212 28.4004 35.1074 28.1 34.6377 28.1H24.6984C23.7676 28.1 23.0152 28.2575 22.5102 28.7582C22.0046 29.2596 21.8398 30.0129 21.8398 30.9585V45.0414C21.8398 45.9757 22.0053 46.7269 22.5091 47.2308C23.0129 47.7346 23.7642 47.9 24.6984 47.9H34.8475C35.3334 47.9 35.6482 47.5892 35.8204 47.2534C35.9887 46.9251 36.0539 46.5238 36.0539 46.1691C36.0539 45.8022 35.9712 45.406 35.795 45.0872ZM42.3016 46.6149V39.7417L42.3016 39.7394C42.2899 38.7195 42.7286 37.8418 43.3646 37.2147C44.0063 36.5819 44.8225 36.2298 45.5273 36.2298C46.454 36.2298 47.0316 36.5016 47.3979 36.9953C47.7841 37.5156 47.9925 38.3551 47.9925 39.6128V46.6149C47.9925 47.0986 48.3071 47.4307 48.6508 47.6212C48.9939 47.8113 49.4236 47.9 49.8282 47.9C50.2439 47.9 50.6848 47.8122 51.0366 47.624C51.3865 47.4368 51.7165 47.1057 51.7165 46.6149L51.7165 46.6136L51.6902 38.7998V38.7991C51.6901 36.9194 51.2373 35.4463 50.3225 34.4407C49.4019 33.4288 48.0697 32.9516 46.4452 32.9516C44.7077 32.9516 43.1789 33.8057 42.1443 34.9161V34.394C42.1443 33.9142 41.8341 33.5833 41.5114 33.393C41.1884 33.2025 40.79 33.109 40.4396 33.109C40.0352 33.109 39.6006 33.1975 39.2526 33.3859C38.9066 33.5731 38.5776 33.904 38.5776 34.394V46.6149C38.5776 47.105 38.9066 47.4359 39.2526 47.6231C39.6006 47.8114 40.0352 47.9 40.4396 47.9C40.8554 47.9 41.2914 47.8121 41.6382 47.6222C41.9861 47.4317 42.3016 47.0993 42.3016 46.6149ZM41.7509 36.0724C41.7509 36.0724 41.7509 36.0724 41.7509 36.0724C41.7582 36.0606 41.7655 36.0488 41.773 36.0371C41.7655 36.0488 41.7582 36.0606 41.7509 36.0724ZM33.8248 36.5969C33.8248 36.5969 33.8248 36.5969 33.8247 36.5969L33.8248 36.5969C33.8248 36.5969 33.8248 36.5969 33.8248 36.5969ZM34.6378 28.4934C34.6377 28.4934 34.6377 28.4934 34.6377 28.4934H24.6984C22.8889 28.4934 22.2332 29.1228 22.2332 30.9585V45.0414C22.2332 45.72 22.3254 46.2363 22.5361 46.6166C22.3254 46.2363 22.2332 45.72 22.2332 45.0414V30.9585C22.2332 29.1228 22.8889 28.4934 24.6984 28.4934H34.6377C34.6377 28.4934 34.6377 28.4934 34.6378 28.4934Z" fill="url(#paint2_linear_0_1)"/>
<path fill-rule="evenodd" clip-rule="evenodd" d="M35.795 45.0872C35.6195 44.7697 35.308 44.4645 34.8475 44.4645H25.7474V39.6128H33.8247C34.3067 39.6128 34.6275 39.3067 34.8071 38.9732C34.9836 38.6454 35.0573 38.2425 35.0573 37.882C35.0573 37.5149 34.9745 37.1216 34.791 36.8058C34.6044 36.4847 34.2835 36.2036 33.8247 36.2036H25.7474V31.5092H34.6377C35.0919 31.5092 35.405 31.2182 35.5841 30.8983C35.7621 30.5804 35.8441 30.1827 35.8441 29.8046C35.8441 29.4437 35.7702 29.0474 35.597 28.7262C35.4212 28.4004 35.1074 28.1 34.6377 28.1H24.6984C23.7676 28.1 23.0152 28.2575 22.5102 28.7582C22.0046 29.2596 21.8398 30.0129 21.8398 30.9585V45.0414C21.8398 45.9757 22.0053 46.7269 22.5091 47.2308C23.0129 47.7346 23.7642 47.9 24.6984 47.9H34.8475C35.3334 47.9 35.6482 47.5892 35.8204 47.2534C35.9887 46.9251 36.0539 46.5238 36.0539 46.1691C36.0539 45.8022 35.9712 45.406 35.795 45.0872ZM42.3016 46.6149V39.7417L42.3016 39.7394C42.2899 38.7195 42.7286 37.8418 43.3646 37.2147C44.0063 36.5819 44.8225 36.2298 45.5273 36.2298C46.454 36.2298 47.0316 36.5016 47.3979 36.9953C47.7841 37.5156 47.9925 38.3551 47.9925 39.6128V46.6149C47.9925 47.0986 48.3071 47.4307 48.6508 47.6212C48.9939 47.8113 49.4236 47.9 49.8282 47.9C50.2439 47.9 50.6848 47.8122 51.0366 47.624C51.3865 47.4368 51.7165 47.1057 51.7165 46.6149L51.7165 46.6136L51.6902 38.7998V38.7991C51.6901 36.9194 51.2373 35.4463 50.3225 34.4407C49.4019 33.4288 48.0697 32.9516 46.4452 32.9516C44.7077 32.9516 43.1789 33.8057 42.1443 34.9161V34.394C42.1443 33.9142 41.8341 33.5833 41.5114 33.393C41.1884 33.2025 40.79 33.109 40.4396 33.109C40.0352 33.109 39.6006 33.1975 39.2526 33.3859C38.9066 33.5731 38.5776 33.904 38.5776 34.394V46.6149C38.5776 47.105 38.9066 47.4359 39.2526 47.6231C39.6006 47.8114 40.0352 47.9 40.4396 47.9C40.8554 47.9 41.2914 47.8121 41.6382 47.6222C41.9861 47.4317 42.3016 47.0993 42.3016 46.6149ZM41.7509 36.0724C41.7509 36.0724 41.7509 36.0724 41.7509 36.0724C41.7582 36.0606 41.7655 36.0488 41.773 36.0371C41.7655 36.0488 41.7582 36.0606 41.7509 36.0724ZM33.8248 36.5969C33.8248 36.5969 33.8248 36.5969 33.8247 36.5969L33.8248 36.5969C33.8248 36.5969 33.8248 36.5969 33.8248 36.5969ZM34.6378 28.4934C34.6377 28.4934 34.6377 28.4934 34.6377 28.4934H24.6984C22.8889 28.4934 22.2332 29.1228 22.2332 30.9585V45.0414C22.2332 45.72 22.3254 46.2363 22.5361 46.6166C22.3254 46.2363 22.2332 45.72 22.2332 45.0414V30.9585C22.2332 29.1228 22.8889 28.4934 24.6984 28.4934H34.6377C34.6377 28.4934 34.6377 28.4934 34.6378 28.4934Z" fill="url(#paint3_linear_0_1)" fill-opacity="0.7"/>
</g>
</g>
<defs>
<filter id="filter0_ii_0_1" x="-2.0348" y="-2.0348" width="79.0696" height="79.0696" filterUnits="userSpaceOnUse" color-interpolation-filters="sRGB">
<feFlood flood-opacity="0" result="BackgroundImageFix"/>
<feBlend mode="normal" in="SourceGraphic" in2="BackgroundImageFix" result="shape"/>
<feColorMatrix in="SourceAlpha" type="matrix" values="0 0 0 0 0 0 0 0 0 0 0 0 0 0 0 0 0 0 127 0" result="hardAlpha"/>
<feOffset dx="2.0348" dy="2.0348"/>
<feGaussianBlur stdDeviation="1.0174"/>
<feComposite in2="hardAlpha" operator="arithmetic" k2="-1" k3="1"/>
<feColorMatrix type="matrix" values="0 0 0 0 1 0 0 0 0 1 0 0 0 0 1 0 0 0 0.2 0"/>
<feBlend mode="normal" in2="shape" result="effect1_innerShadow_0_1"/>
<feColorMatrix in="SourceAlpha" type="matrix" values="0 0 0 0 0 0 0 0 0 0 0 0 0 0 0 0 0 0 127 0" result="hardAlpha"/>
<feOffset dx="-2.0348" dy="-2.0348"/>
<feGaussianBlur stdDeviation="1.0174"/>
<feComposite in2="hardAlpha" operator="arithmetic" k2="-1" k3="1"/>
<feColorMatrix type="matrix" values="0 0 0 0 0 0 0 0 0 0 0 0 0 0 0 0 0 0 0.05 0"/>
<feBlend mode="normal" in2="effect1_innerShadow_0_1" result="effect2_innerShadow_0_1"/>
</filter>
<filter id="filter1_dii_0_1" x="-15.4967" y="-4.28791" width="104.993" height="108.993" filterUnits="userSpaceOnUse" color-interpolation-filters="sRGB">
<feFlood flood-opacity="0" result="BackgroundImageFix"/>
<feColorMatrix in="SourceAlpha" type="matrix" values="0 0 0 0 0 0 0 0 0 0 0 0 0 0 0 0 0 0 127 0" result="hardAlpha"/>
<feMorphology radius="2.26721" operator="dilate" in="SourceAlpha" result="effect1_dropShadow_0_1"/>
<feOffset dy="12.2088"/>
<feGaussianBlur stdDeviation="15.1148"/>
<feColorMatrix type="matrix" values="0 0 0 0 0.654167 0 0 0 0 0 0 0 0 0 0.03925 0 0 0 0.6 0"/>
<feBlend mode="normal" in2="BackgroundImageFix" result="effect1_dropShadow_0_1"/>
<feBlend mode="normal" in="SourceGraphic" in2="effect1_dropShadow_0_1" result="shape"/>
<feColorMatrix in="SourceAlpha" type="matrix" values="0 0 0 0 0 0 0 0 0 0 0 0 0 0 0 0 0 0 127 0" result="hardAlpha"/>
<feOffset dy="-8.13921"/>
<feGaussianBlur stdDeviation="5.08701"/>
<feComposite in2="hardAlpha" operator="arithmetic" k2="-1" k3="1"/>
<feColorMatrix type="matrix" values="0 0 0 0 0.845833 0 0 0 0 0.00704861 0 0 0 0 0.00704861 0 0 0 0.3 0"/>
<feBlend mode="normal" in2="shape" result="effect2_innerShadow_0_1"/>
<feColorMatrix in="SourceAlpha" type="matrix" values="0 0 0 0 0 0 0 0 0 0 0 0 0 0 0 0 0 0 127 0" result="hardAlpha"/>
<feOffset dy="-3.0522"/>
<feGaussianBlur stdDeviation="2.0348"/>
<feComposite in2="hardAlpha" operator="arithmetic" k2="-1" k3="1"/>
<feColorMatrix type="matrix" values="0 0 0 0 1 0 0 0 0 1 0 0 0 0 1 0 0 0 0.75 0"/>
<feBlend mode="normal" in2="effect2_innerShadow_0_1" result="effect3_innerShadow_0_1"/>
</filter>
<filter id="filter2_diii_0_1" x="12.831" y="19.004" width="47.8941" height="43.9688" filterUnits="userSpaceOnUse" color-interpolation-filters="sRGB">
<feFlood flood-opacity="0" result="BackgroundImageFix"/>
<feColorMatrix in="SourceAlpha" type="matrix" values="0 0 0 0 0 0 0 0 0 0 0 0 0 0 0 0 0 0 127 0" result="hardAlpha"/>
<feOffset dy="6.06398"/>
<feGaussianBlur stdDeviation="4.5044"/>
<feColorMatrix type="matrix" values="0 0 0 0 0.639132 0 0 0 0 0.75191 0 0 0 0 0.970833 0 0 0 0.6 0"/>
<feBlend mode="normal" in2="BackgroundImageFix" result="effect1_dropShadow_0_1"/>
<feBlend mode="normal" in="SourceGraphic" in2="effect1_dropShadow_0_1" result="shape"/>
<feColorMatrix in="SourceAlpha" type="matrix" values="0 0 0 0 0 0 0 0 0 0 0 0 0 0 0 0 0 0 127 0" result="hardAlpha"/>
<feOffset dy="-9.09597"/>
<feGaussianBlur stdDeviation="20.2698"/>
<feComposite in2="hardAlpha" operator="arithmetic" k2="-1" k3="1"/>
<feColorMatrix type="matrix" values="0 0 0 0 0.575 0 0 0 0 0.847 0 0 0 0 1 0 0 0 0.6 0"/>
<feBlend mode="normal" in2="shape" result="effect2_innerShadow_0_1"/>
<feColorMatrix in="SourceAlpha" type="matrix" values="0 0 0 0 0 0 0 0 0 0 0 0 0 0 0 0 0 0 127 0" result="hardAlpha"/>
<feOffset dy="-6.7566"/>
<feGaussianBlur stdDeviation="2.92786"/>
<feComposite in2="hardAlpha" operator="arithmetic" k2="-1" k3="1"/>
<feColorMatrix type="matrix" values="0 0 0 0 1 0 0 0 0 1 0 0 0 0 1 0 0 0 0.35 0"/>
<feBlend mode="normal" in2="effect2_innerShadow_0_1" result="effect3_innerShadow_0_1"/>
<feColorMatrix in="SourceAlpha" type="matrix" values="0 0 0 0 0 0 0 0 0 0 0 0 0 0 0 0 0 0 127 0" result="hardAlpha"/>
<feOffset dy="4.5044"/>
<feGaussianBlur stdDeviation="3.15308"/>
<feComposite in2="hardAlpha" operator="arithmetic" k2="-1" k3="1"/>
<feColorMatrix type="matrix" values="0 0 0 0 1 0 0 0 0 1 0 0 0 0 1 0 0 0 0.35 0"/>
<feBlend mode="normal" in2="effect3_innerShadow_0_1" result="effect4_innerShadow_0_1"/>
</filter>
<linearGradient id="paint0_linear_0_1" x1="37.5" y1="0" x2="37.5" y2="75" gradientUnits="userSpaceOnUse">
<stop stop-color="#E2667A"/>
<stop offset="1" stop-color="#DB5F73"/>
</linearGradient>
<linearGradient id="paint1_linear_0_1" x1="37.5" y1="0" x2="37.5" y2="75" gradientUnits="userSpaceOnUse">
<stop offset="0.328125" stop-color="white"/>
<stop offset="1" stop-opacity="0.1"/>
</linearGradient>
<linearGradient id="paint2_linear_0_1" x1="36.8011" y1="20.9893" x2="36.8011" y2="43.5" gradientUnits="userSpaceOnUse">
<stop offset="0.00520833" stop-color="white" stop-opacity="0.08"/>
<stop offset="0.0851933" stop-opacity="0.08"/>
<stop offset="0.336988" stop-color="white" stop-opacity="0.1"/>
<stop offset="0.660917" stop-color="white" stop-opacity="0.1"/>
<stop offset="1" stop-opacity="0.1"/>
</linearGradient>
<linearGradient id="paint3_linear_0_1" x1="36.7782" y1="28.1" x2="36.7782" y2="47.9" gradientUnits="userSpaceOnUse">
<stop stop-color="#526EFF"/>
<stop offset="1" stop-color="white" stop-opacity="0"/>
</linearGradient>
<clipPath id="clip0_0_1">
<rect x="-745" y="-1049" width="1920" height="1410" rx="30" fill="white"/>
</clipPath>
</defs>
</svg>
