<svg width="851" height="127" viewBox="0 0 851 127" fill="none" xmlns="http://www.w3.org/2000/svg">
<path d="M6.7 47.2C6.7 65.8 21.9 81.1 41.3 82C42.5 82.1 39 82.1 74.7 82V77C74.7 74.1 72.2 71.6 69.2 71.6H43C28.9 71.6 17.3 60.7 17.3 47.2C17.3 33.7 28.9 22.7 43 22.7H69.2C72.2 22.7 74.7 20.3 74.7 17.3V12.3C39.6 12.3 42.2 12.3 41.3 12.3C21.9 13.3 6.7 28.6 6.7 47.2ZM211.115 22.7H238.815C253.015 22.7 264.515 33.7 264.515 47.2C264.515 60.7 253.015 71.6 238.815 71.6H211.115C208.015 71.6 205.615 74.1 205.615 77V82C209.415 82 234.915 82 238.315 82.1C249.115 82.1 258.415 78 265.015 71.3C278.615 57.8 278.615 36.4 264.915 22.9C257.915 16 248.515 12.2 238.315 12.3C238.015 12.3 205.815 12.3 205.615 12.3V17.3C205.615 20.3 208.015 22.7 211.115 22.7ZM365.651 77C365.651 74.1 363.151 71.6 360.151 71.6H299.751C298.051 71.6 296.651 73 296.651 74.8V82H365.651V77ZM358.451 47V42H299.751C298.051 42 296.651 43.4 296.651 45.1V52.4H352.851C355.951 52.4 358.451 50 358.451 47ZM296.651 19.5C296.651 21.3 298.051 22.7 299.851 22.7H359.151C362.151 22.7 364.651 20.3 364.651 17.3V12.3H296.651V19.5ZM441.114 47.2C441.114 65.8 456.314 81.1 475.714 82C476.914 82.1 473.414 82.1 509.114 82V77C509.114 74.1 506.614 71.6 503.614 71.6H477.414C463.314 71.6 451.714 60.7 451.714 47.2C451.714 33.7 463.314 22.7 477.414 22.7H503.614C506.614 22.7 509.114 20.3 509.114 17.3V12.3C474.014 12.3 476.614 12.3 475.714 12.3C456.314 13.3 441.114 28.6 441.114 47.2ZM570.697 12.3V37.7H516.097V42.8C516.097 45.7 518.497 48.1 521.597 48.1H570.697V76.7C570.697 79.6 573.197 82 576.297 82H581.797V17.7C581.797 14.7 579.297 12.3 576.297 12.3H570.697ZM675.866 77C675.866 74.1 673.366 71.6 670.366 71.6H609.966C608.266 71.6 606.866 73 606.866 74.8V82H675.866V77ZM668.666 47V42H609.966C608.266 42 606.866 43.4 606.866 45.1V52.4H663.066C666.166 52.4 668.666 50 668.666 47ZM606.866 19.5C606.866 21.3 608.266 22.7 610.066 22.7H669.366C672.366 22.7 674.866 20.3 674.866 17.3V12.3H606.866V19.5ZM744.909 42L739.209 41.9V47.1C739.209 50 741.609 52.4 744.609 52.4C751.409 52.6 755.009 57.5 755.009 62C755.009 67 750.609 71.4 745.509 71.6H703.309C700.209 71.6 697.709 74 697.709 77V82C710.409 82 745.709 82.1 746.309 82C757.409 81.1 765.709 72.5 765.709 62C765.709 51 756.409 42 744.909 42ZM717.609 52.4H723.309V47.3C723.309 44.3 720.709 41.9 717.609 41.9C712.009 41.9 707.509 37.6 707.509 32.3C707.509 27 712.009 22.7 717.609 22.7C720.209 22.7 720.109 22.7 757.409 22.7C760.409 22.7 762.909 20.3 762.909 17.3V12.3H718.309C706.709 12 696.809 20.8 696.809 32.3C696.809 43.4 706.109 52.4 717.609 52.4ZM787.985 22.7H848.185V17.7C848.185 14.7 845.685 12.3 842.685 12.3H782.485V17.3C782.485 20.3 784.885 22.7 787.985 22.7ZM809.785 76.7C809.785 79.6 812.285 82 815.385 82H820.885V37.7C820.885 34.7 818.385 32.3 815.285 32.3H809.785V76.7Z" fill="#BDDEF9"/>
</svg>
