<svg width="75" height="75" viewBox="0 0 75 75" fill="none" xmlns="http://www.w3.org/2000/svg">
<rect width="75" height="75" fill="#E5E5E5"/>
<rect width="2320" height="1810" transform="translate(-410 -1249)" fill="#475A7D"/>
<g clip-path="url(#clip0_0_1)">
<rect x="-210" y="-1049" width="1920" height="1410" rx="30" fill="#29354A"/>
<g filter="url(#filter0_ii_0_1)">
<rect width="75" height="75" rx="20" fill="url(#paint0_linear_0_1)"/>
<rect width="75" height="75" rx="20" fill="url(#paint1_linear_0_1)" fill-opacity="0.2" style="mix-blend-mode:soft-light"/>
</g>
<g filter="url(#filter1_i_0_1)">
<path d="M60.25 42.875V32.5L66.2609 33.4881C66.2609 33.4881 67.5784 34.8879 67.5784 37.6875C67.5784 40.4871 66.2609 41.8869 66.2609 41.8869L60.25 42.875Z" fill="white"/>
</g>
<g filter="url(#filter2_dii_0_1)">
<path d="M16.3286 42.875V32.5L10.3177 33.4881C10.3177 33.4881 9.00024 34.8879 9.00024 37.6875C9.00024 40.4871 10.3177 41.8869 10.3177 41.8869L16.3286 42.875Z" fill="white"/>
</g>
<g filter="url(#filter3_ii_0_1)">
<rect x="12.75" y="20" width="51" height="35" rx="17.5" fill="white"/>
</g>
<g filter="url(#filter4_ii_0_1)">
<rect x="20.75" y="26.5" width="35" height="22" rx="11" fill="url(#paint2_linear_0_1)"/>
</g>
<g filter="url(#filter5_iii_0_1)">
<path d="M51.7502 37.4999C51.7502 39.2948 50.2951 40.7499 48.5002 40.7499C46.7053 40.7499 44.5571 39.6413 44.5571 37.8464C44.5571 36.0515 46.7053 34.2499 48.5002 34.2499C50.2951 34.2499 51.7502 35.705 51.7502 37.4999Z" fill="#0047FF"/>
<path d="M51.7502 37.4999C51.7502 39.2948 50.2951 40.7499 48.5002 40.7499C46.7053 40.7499 44.5571 39.6413 44.5571 37.8464C44.5571 36.0515 46.7053 34.2499 48.5002 34.2499C50.2951 34.2499 51.7502 35.705 51.7502 37.4999Z" fill="url(#paint3_linear_0_1)"/>
<path d="M51.7502 37.4999C51.7502 39.2948 50.2951 40.7499 48.5002 40.7499C46.7053 40.7499 44.5571 39.6413 44.5571 37.8464C44.5571 36.0515 46.7053 34.2499 48.5002 34.2499C50.2951 34.2499 51.7502 35.705 51.7502 37.4999Z" fill="url(#paint4_linear_0_1)" fill-opacity="0.7"/>
</g>
<path d="M48.5002 43.0171C51.5473 43.0171 54.0174 40.5469 54.0174 37.4999C54.0174 34.4528 51.5473 31.9827 48.5002 31.9827C46.9065 31.9827 45.4075 32.7427 44.3518 33.6783C43.3087 34.6027 42.2899 36.0702 42.2899 37.8464C42.2899 39.7542 43.4495 41.1013 44.6085 41.8646C45.7614 42.6241 47.1857 43.0171 48.5002 43.0171Z" stroke="#1F295B" stroke-width="4.53443"/>
<g filter="url(#filter6_iii_0_1)">
<path d="M31.9431 37.8464C31.9431 39.6413 29.7949 40.7499 28 40.7499C26.2051 40.7499 24.75 39.2948 24.75 37.4999C24.75 35.705 26.2051 34.2499 28 34.2499C29.7949 34.2499 31.9431 36.0515 31.9431 37.8464Z" fill="#0047FF"/>
<path d="M31.9431 37.8464C31.9431 39.6413 29.7949 40.7499 28 40.7499C26.2051 40.7499 24.75 39.2948 24.75 37.4999C24.75 35.705 26.2051 34.2499 28 34.2499C29.7949 34.2499 31.9431 36.0515 31.9431 37.8464Z" fill="url(#paint5_linear_0_1)"/>
<path d="M31.9431 37.8464C31.9431 39.6413 29.7949 40.7499 28 40.7499C26.2051 40.7499 24.75 39.2948 24.75 37.4999C24.75 35.705 26.2051 34.2499 28 34.2499C29.7949 34.2499 31.9431 36.0515 31.9431 37.8464Z" fill="url(#paint6_linear_0_1)" fill-opacity="0.7"/>
</g>
<path d="M28 43.0171C29.3145 43.0171 30.7388 42.6241 31.8917 41.8646C33.0507 41.1013 34.2103 39.7542 34.2103 37.8464C34.2103 36.0702 33.1915 34.6027 32.1484 33.6783C31.0927 32.7427 29.5937 31.9827 28 31.9827C24.9529 31.9827 22.4828 34.4528 22.4828 37.4999C22.4828 40.5469 24.9529 43.0171 28 43.0171Z" stroke="#1F295B" stroke-width="4.53443"/>
</g>
<defs>
<filter id="filter0_ii_0_1" x="-2.0348" y="-2.0348" width="79.0696" height="79.0696" filterUnits="userSpaceOnUse" color-interpolation-filters="sRGB">
<feFlood flood-opacity="0" result="BackgroundImageFix"/>
<feBlend mode="normal" in="SourceGraphic" in2="BackgroundImageFix" result="shape"/>
<feColorMatrix in="SourceAlpha" type="matrix" values="0 0 0 0 0 0 0 0 0 0 0 0 0 0 0 0 0 0 127 0" result="hardAlpha"/>
<feOffset dx="2.0348" dy="2.0348"/>
<feGaussianBlur stdDeviation="1.0174"/>
<feComposite in2="hardAlpha" operator="arithmetic" k2="-1" k3="1"/>
<feColorMatrix type="matrix" values="0 0 0 0 1 0 0 0 0 1 0 0 0 0 1 0 0 0 0.2 0"/>
<feBlend mode="normal" in2="shape" result="effect1_innerShadow_0_1"/>
<feColorMatrix in="SourceAlpha" type="matrix" values="0 0 0 0 0 0 0 0 0 0 0 0 0 0 0 0 0 0 127 0" result="hardAlpha"/>
<feOffset dx="-2.0348" dy="-2.0348"/>
<feGaussianBlur stdDeviation="1.0174"/>
<feComposite in2="hardAlpha" operator="arithmetic" k2="-1" k3="1"/>
<feColorMatrix type="matrix" values="0 0 0 0 0 0 0 0 0 0 0 0 0 0 0 0 0 0 0.05 0"/>
<feBlend mode="normal" in2="effect1_innerShadow_0_1" result="effect2_innerShadow_0_1"/>
</filter>
<filter id="filter1_i_0_1" x="60.25" y="27.5931" width="7.32861" height="15.2819" filterUnits="userSpaceOnUse" color-interpolation-filters="sRGB">
<feFlood flood-opacity="0" result="BackgroundImageFix"/>
<feBlend mode="normal" in="SourceGraphic" in2="BackgroundImageFix" result="shape"/>
<feColorMatrix in="SourceAlpha" type="matrix" values="0 0 0 0 0 0 0 0 0 0 0 0 0 0 0 0 0 0 127 0" result="hardAlpha"/>
<feOffset dy="-6.54253"/>
<feGaussianBlur stdDeviation="2.45345"/>
<feComposite in2="hardAlpha" operator="arithmetic" k2="-1" k3="1"/>
<feColorMatrix type="matrix" values="0 0 0 0 0 0 0 0 0 0.266333 0 0 0 0 0.783333 0 0 0 0.3 0"/>
<feBlend mode="normal" in2="shape" result="effect1_innerShadow_0_1"/>
</filter>
<filter id="filter2_dii_0_1" x="-39.4428" y="10.4805" width="104.214" height="107.261" filterUnits="userSpaceOnUse" color-interpolation-filters="sRGB">
<feFlood flood-opacity="0" result="BackgroundImageFix"/>
<feColorMatrix in="SourceAlpha" type="matrix" values="0 0 0 0 0 0 0 0 0 0 0 0 0 0 0 0 0 0 127 0" result="hardAlpha"/>
<feOffset dy="26.4234"/>
<feGaussianBlur stdDeviation="24.2214"/>
<feColorMatrix type="matrix" values="0 0 0 0 0 0 0 0 0 0.0450001 0 0 0 0 0.45 0 0 0 0.05 0"/>
<feBlend mode="normal" in2="BackgroundImageFix" result="effect1_dropShadow_0_1"/>
<feBlend mode="normal" in="SourceGraphic" in2="effect1_dropShadow_0_1" result="shape"/>
<feColorMatrix in="SourceAlpha" type="matrix" values="0 0 0 0 0 0 0 0 0 0 0 0 0 0 0 0 0 0 127 0" result="hardAlpha"/>
<feOffset dy="-6.54253"/>
<feGaussianBlur stdDeviation="2.45345"/>
<feComposite in2="hardAlpha" operator="arithmetic" k2="-1" k3="1"/>
<feColorMatrix type="matrix" values="0 0 0 0 0 0 0 0 0 0.266333 0 0 0 0 0.783333 0 0 0 0.3 0"/>
<feBlend mode="normal" in2="shape" result="effect2_innerShadow_0_1"/>
<feColorMatrix in="SourceAlpha" type="matrix" values="0 0 0 0 0 0 0 0 0 0 0 0 0 0 0 0 0 0 127 0" result="hardAlpha"/>
<feOffset dy="-6.60584"/>
<feGaussianBlur stdDeviation="4.40389"/>
<feComposite in2="hardAlpha" operator="arithmetic" k2="-1" k3="1"/>
<feColorMatrix type="matrix" values="0 0 0 0 0.766667 0 0 0 0 0.93 0 0 0 0 1 0 0 0 0.4 0"/>
<feBlend mode="normal" in2="effect2_innerShadow_0_1" result="effect3_innerShadow_0_1"/>
</filter>
<filter id="filter3_ii_0_1" x="12.75" y="13.3942" width="51" height="41.6058" filterUnits="userSpaceOnUse" color-interpolation-filters="sRGB">
<feFlood flood-opacity="0" result="BackgroundImageFix"/>
<feBlend mode="normal" in="SourceGraphic" in2="BackgroundImageFix" result="shape"/>
<feColorMatrix in="SourceAlpha" type="matrix" values="0 0 0 0 0 0 0 0 0 0 0 0 0 0 0 0 0 0 127 0" result="hardAlpha"/>
<feOffset dy="-6.54253"/>
<feGaussianBlur stdDeviation="2.45345"/>
<feComposite in2="hardAlpha" operator="arithmetic" k2="-1" k3="1"/>
<feColorMatrix type="matrix" values="0 0 0 0 0.690196 0 0 0 0 0.776941 0 0 0 0 1 0 0 0 0.8 0"/>
<feBlend mode="normal" in2="shape" result="effect1_innerShadow_0_1"/>
<feColorMatrix in="SourceAlpha" type="matrix" values="0 0 0 0 0 0 0 0 0 0 0 0 0 0 0 0 0 0 127 0" result="hardAlpha"/>
<feOffset dy="-6.60584"/>
<feGaussianBlur stdDeviation="4.40389"/>
<feComposite in2="hardAlpha" operator="arithmetic" k2="-1" k3="1"/>
<feColorMatrix type="matrix" values="0 0 0 0 0.766667 0 0 0 0 0.93 0 0 0 0 1 0 0 0 0.4 0"/>
<feBlend mode="normal" in2="effect1_innerShadow_0_1" result="effect2_innerShadow_0_1"/>
</filter>
<filter id="filter4_ii_0_1" x="20.75" y="23.2287" width="35" height="31.6605" filterUnits="userSpaceOnUse" color-interpolation-filters="sRGB">
<feFlood flood-opacity="0" result="BackgroundImageFix"/>
<feBlend mode="normal" in="SourceGraphic" in2="BackgroundImageFix" result="shape"/>
<feColorMatrix in="SourceAlpha" type="matrix" values="0 0 0 0 0 0 0 0 0 0 0 0 0 0 0 0 0 0 127 0" result="hardAlpha"/>
<feOffset dy="6.38919"/>
<feGaussianBlur stdDeviation="3.19459"/>
<feComposite in2="hardAlpha" operator="arithmetic" k2="-1" k3="1"/>
<feColorMatrix type="matrix" values="0 0 0 0 0.188333 0 0 0 0 0.399267 0 0 0 0 0.941667 0 0 0 0.31 0"/>
<feBlend mode="normal" in2="shape" result="effect1_innerShadow_0_1"/>
<feColorMatrix in="SourceAlpha" type="matrix" values="0 0 0 0 0 0 0 0 0 0 0 0 0 0 0 0 0 0 127 0" result="hardAlpha"/>
<feOffset dy="-3.27126"/>
<feGaussianBlur stdDeviation="1.63563"/>
<feComposite in2="hardAlpha" operator="arithmetic" k2="-1" k3="1"/>
<feColorMatrix type="matrix" values="0 0 0 0 0.0807292 0 0 0 0 0.101146 0 0 0 0 0.208333 0 0 0 0.8 0"/>
<feBlend mode="normal" in2="effect1_innerShadow_0_1" result="effect2_innerShadow_0_1"/>
</filter>
<filter id="filter5_iii_0_1" x="40.0225" y="19.9017" width="16.2622" height="27.0183" filterUnits="userSpaceOnUse" color-interpolation-filters="sRGB">
<feFlood flood-opacity="0" result="BackgroundImageFix"/>
<feBlend mode="normal" in="SourceGraphic" in2="BackgroundImageFix" result="shape"/>
<feColorMatrix in="SourceAlpha" type="matrix" values="0 0 0 0 0 0 0 0 0 0 0 0 0 0 0 0 0 0 127 0" result="hardAlpha"/>
<feOffset dy="-9.81379"/>
<feGaussianBlur stdDeviation="8.17816"/>
<feComposite in2="hardAlpha" operator="arithmetic" k2="-1" k3="1"/>
<feColorMatrix type="matrix" values="0 0 0 0 0.575 0 0 0 0 1 0 0 0 0 0.949 0 0 0 1 0"/>
<feBlend mode="normal" in2="shape" result="effect1_innerShadow_0_1"/>
<feColorMatrix in="SourceAlpha" type="matrix" values="0 0 0 0 0 0 0 0 0 0 0 0 0 0 0 0 0 0 127 0" result="hardAlpha"/>
<feOffset dy="-3.27126"/>
<feGaussianBlur stdDeviation="3.27126"/>
<feComposite in2="hardAlpha" operator="arithmetic" k2="-1" k3="1"/>
<feColorMatrix type="matrix" values="0 0 0 0 1 0 0 0 0 1 0 0 0 0 1 0 0 0 0.12 0"/>
<feBlend mode="normal" in2="effect1_innerShadow_0_1" result="effect2_innerShadow_0_1"/>
<feColorMatrix in="SourceAlpha" type="matrix" values="0 0 0 0 0 0 0 0 0 0 0 0 0 0 0 0 0 0 127 0" result="hardAlpha"/>
<feOffset dy="1.63563"/>
<feGaussianBlur stdDeviation="3.27126"/>
<feComposite in2="hardAlpha" operator="arithmetic" k2="-1" k3="1"/>
<feColorMatrix type="matrix" values="0 0 0 0 1 0 0 0 0 1 0 0 0 0 1 0 0 0 0.12 0"/>
<feBlend mode="normal" in2="effect2_innerShadow_0_1" result="effect3_innerShadow_0_1"/>
</filter>
<filter id="filter6_iii_0_1" x="20.2153" y="19.9017" width="16.2622" height="27.0183" filterUnits="userSpaceOnUse" color-interpolation-filters="sRGB">
<feFlood flood-opacity="0" result="BackgroundImageFix"/>
<feBlend mode="normal" in="SourceGraphic" in2="BackgroundImageFix" result="shape"/>
<feColorMatrix in="SourceAlpha" type="matrix" values="0 0 0 0 0 0 0 0 0 0 0 0 0 0 0 0 0 0 127 0" result="hardAlpha"/>
<feOffset dy="-9.81379"/>
<feGaussianBlur stdDeviation="8.17816"/>
<feComposite in2="hardAlpha" operator="arithmetic" k2="-1" k3="1"/>
<feColorMatrix type="matrix" values="0 0 0 0 0.575 0 0 0 0 1 0 0 0 0 0.949 0 0 0 1 0"/>
<feBlend mode="normal" in2="shape" result="effect1_innerShadow_0_1"/>
<feColorMatrix in="SourceAlpha" type="matrix" values="0 0 0 0 0 0 0 0 0 0 0 0 0 0 0 0 0 0 127 0" result="hardAlpha"/>
<feOffset dy="-3.27126"/>
<feGaussianBlur stdDeviation="3.27126"/>
<feComposite in2="hardAlpha" operator="arithmetic" k2="-1" k3="1"/>
<feColorMatrix type="matrix" values="0 0 0 0 1 0 0 0 0 1 0 0 0 0 1 0 0 0 0.12 0"/>
<feBlend mode="normal" in2="effect1_innerShadow_0_1" result="effect2_innerShadow_0_1"/>
<feColorMatrix in="SourceAlpha" type="matrix" values="0 0 0 0 0 0 0 0 0 0 0 0 0 0 0 0 0 0 127 0" result="hardAlpha"/>
<feOffset dy="1.63563"/>
<feGaussianBlur stdDeviation="3.27126"/>
<feComposite in2="hardAlpha" operator="arithmetic" k2="-1" k3="1"/>
<feColorMatrix type="matrix" values="0 0 0 0 1 0 0 0 0 1 0 0 0 0 1 0 0 0 0.12 0"/>
<feBlend mode="normal" in2="effect2_innerShadow_0_1" result="effect3_innerShadow_0_1"/>
</filter>
<linearGradient id="paint0_linear_0_1" x1="37.5" y1="0" x2="37.5" y2="75" gradientUnits="userSpaceOnUse">
<stop stop-color="#6683E7"/>
<stop offset="1" stop-color="#4968D7"/>
</linearGradient>
<linearGradient id="paint1_linear_0_1" x1="37.5" y1="0" x2="37.5" y2="75" gradientUnits="userSpaceOnUse">
<stop offset="0.328125" stop-color="white"/>
<stop offset="1" stop-opacity="0.1"/>
</linearGradient>
<linearGradient id="paint2_linear_0_1" x1="20.75" y1="26.5" x2="20.75" y2="48.5" gradientUnits="userSpaceOnUse">
<stop stop-color="#181927"/>
<stop offset="1" stop-color="#1D2433"/>
</linearGradient>
<linearGradient id="paint3_linear_0_1" x1="48.5052" y1="31.9156" x2="48.5052" y2="39.3054" gradientUnits="userSpaceOnUse">
<stop offset="0.00520833" stop-color="white" stop-opacity="0.08"/>
<stop offset="0.0851933" stop-opacity="0.08"/>
<stop offset="0.336988" stop-color="white" stop-opacity="0.1"/>
<stop offset="0.660917" stop-color="white" stop-opacity="0.1"/>
<stop offset="1" stop-opacity="0.1"/>
</linearGradient>
<linearGradient id="paint4_linear_0_1" x1="48.5002" y1="34.2499" x2="48.5002" y2="40.7499" gradientUnits="userSpaceOnUse">
<stop stop-color="#526EFF"/>
<stop offset="1" stop-color="white" stop-opacity="0"/>
</linearGradient>
<linearGradient id="paint5_linear_0_1" x1="28.005" y1="31.9156" x2="28.005" y2="39.3054" gradientUnits="userSpaceOnUse">
<stop offset="0.00520833" stop-color="white" stop-opacity="0.08"/>
<stop offset="0.0851933" stop-opacity="0.08"/>
<stop offset="0.336988" stop-color="white" stop-opacity="0.1"/>
<stop offset="0.660917" stop-color="white" stop-opacity="0.1"/>
<stop offset="1" stop-opacity="0.1"/>
</linearGradient>
<linearGradient id="paint6_linear_0_1" x1="28" y1="34.2499" x2="28" y2="40.7499" gradientUnits="userSpaceOnUse">
<stop stop-color="#526EFF"/>
<stop offset="1" stop-color="white" stop-opacity="0"/>
</linearGradient>
<clipPath id="clip0_0_1">
<rect x="-210" y="-1049" width="1920" height="1410" rx="30" fill="white"/>
</clipPath>
</defs>
</svg>
